<?xml version="1.0" encoding="utf-8"?>
<!-- Generator: Adobe Illustrator 16.0.3, SVG Export Plug-In . SVG Version: 6.00 Build 0)  -->
<!DOCTYPE svg PUBLIC "-//W3C//DTD SVG 1.1//EN" "http://www.w3.org/Graphics/SVG/1.1/DTD/svg11.dtd">
<svg version="1.1" id="Layer_1" xmlns="http://www.w3.org/2000/svg" xmlns:xlink="http://www.w3.org/1999/xlink" x="0px" y="0px"
	 width="551.577px" height="92.588px" viewBox="0 0 551.577 92.588" enable-background="new 0 0 551.577 92.588"
	 xml:space="preserve">
<g>
	<path fill-rule="evenodd" clip-rule="evenodd" d="M215.013,7.501h-97.975v65.861h42.549v12.115H171.5V73.424h43.513V7.501z
		 M202.77,18.781v43.264h-31.145c0,0,0.016-8.979,0.016-12.137h-12.058v12.137h-31.458V18.781H202.77z"/>
	<path fill-rule="evenodd" clip-rule="evenodd" d="M238.397,7.497h-11.131c0,21.89,0,65.827,0,65.827h97.999c0,0,0-43.821,0-65.815
		c-3.912,0-7.749,0-11.837,0c0,18.142,0,36.221,0,54.492h-75.031V7.497z"/>
	<path fill-rule="evenodd" clip-rule="evenodd" d="M337.476,7.55v65.731h11.149V18.753c49.887,0.052,49.887,0.054,74.917,0.054
		c0,18.121,0,36.245,0,54.492c4.084,0,7.923,0,11.942,0c0-21.799,0-43.712,0-65.749C397.455,7.55,364.885,7.55,337.476,7.55z"/>
	<path fill-rule="evenodd" clip-rule="evenodd" d="M545.856,73.303V62.045L458.918,62V7.55h-11.072c0,21.806,0,43.719,0,65.752
		H545.856z"/>
	<rect x="6.698" y="51.542" fill-rule="evenodd" clip-rule="evenodd" width="98.187" height="11.903"/>
	<path fill-rule="evenodd" clip-rule="evenodd" d="M104.816,29.306V17.41H6.626v11.896C39.338,29.306,71.915,29.306,104.816,29.306z
		"/>
	<rect x="380.141" y="34.737" fill-rule="evenodd" clip-rule="evenodd" width="11.949" height="12.137"/>
</g>
<g>
</g>
<g>
</g>
<g>
</g>
<g>
</g>
<g>
</g>
<g>
</g>
</svg>
