<?xml version="1.0" encoding="utf-8"?>
<!-- Generator: Adobe Illustrator 16.0.3, SVG Export Plug-In . SVG Version: 6.00 Build 0)  -->
<!DOCTYPE svg PUBLIC "-//W3C//DTD SVG 1.1//EN" "http://www.w3.org/Graphics/SVG/1.1/DTD/svg11.dtd">
<svg version="1.1" id="Layer_1" xmlns="http://www.w3.org/2000/svg" xmlns:xlink="http://www.w3.org/1999/xlink" x="0px" y="0px"
	 width="139px" height="52px" viewBox="0 0 139 52" enable-background="new 0 0 139 52" xml:space="preserve">
<title>logo/kaleo</title>
<desc>Created with Sketch.</desc>
<g>
	<polygon id="Fill_yellow" fill="#F7AB2A" points="10.11,34.775 10.11,40.761 25.059,40.761 15.9,27.798 	"/>
	<polygon id="Fill_red" fill="#EA4E61" points="29.685,38.779 29.685,19.84 25.3,15.381 18.974,23.798 	"/>
	<polygon id="Fill_green" fill="#83BB32" points="0.3,19.84 0.3,40.761 5.122,40.761 5.119,14.94 	"/>
	<polygon id="Fill_blue" fill="#21B5B8" points="14.993,4.909 10.118,9.865 10.118,27.716 21.796,11.824 	"/>
</g>
<g>
	<path fill="#324549" stroke="#324549" stroke-width="1.5" stroke-miterlimit="10" d="M46.181,15.971c3.213,0,5.5,0.944,6.859,2.832
		c1.377,1.878,2.066,4.962,2.066,9.259c0,4.302-0.689,7.396-2.066,9.285c-1.358,1.865-3.646,2.801-6.859,2.801
		c-3.502,0-6.132-0.073-7.894-0.221c-0.173-0.021-0.287-0.059-0.344-0.111c-0.058-0.053-0.086-0.162-0.086-0.331V16.664
		c0-0.189,0.028-0.309,0.086-0.362c0.058-0.053,0.172-0.09,0.344-0.111C40.049,16.045,42.679,15.971,46.181,15.971z M45.78,18.773
		h-5.023v18.575h5.425c2.181,0,3.72-0.713,4.62-2.14c0.918-1.45,1.378-3.831,1.378-7.146c0-3.284-0.488-5.657-1.464-7.108
		C49.739,19.501,48.094,18.773,45.78,18.773z"/>
	<path fill="#324549" stroke="#324549" stroke-width="1.5" stroke-miterlimit="10" d="M61.707,17.702
		c0,1.239-0.563,1.861-1.692,1.861c-1.13,0-1.693-0.622-1.693-1.861c0-1.217,0.563-1.825,1.693-1.825
		C61.144,15.877,61.707,16.485,61.707,17.702z M59.067,22.752h1.894c0.288,0,0.431,0.159,0.431,0.475v16.292
		c0,0.315-0.144,0.472-0.431,0.472h-1.894c-0.287,0-0.43-0.156-0.43-0.472V23.227C58.638,22.912,58.78,22.752,59.067,22.752z"/>
	<path fill="#324549" stroke="#324549" stroke-width="1.5" stroke-miterlimit="10" d="M70.662,22.593
		c1.493,0,2.957,0.095,4.393,0.286c0.269,0.042,0.4,0.211,0.4,0.506v1.36c0,0.315-0.144,0.474-0.428,0.474h-5.341
		c-1.396,0-2.095,0.549-2.095,1.644v0.412c0,0.984,0.593,1.721,1.78,2.203l3.817,1.667c1.13,0.483,1.89,1.062,2.282,1.73
		c0.392,0.672,0.589,1.575,0.589,2.707v0.347c0,1.679-0.449,2.802-1.35,3.367c-0.899,0.567-2.384,0.851-4.45,0.851
		c-2.027,0-3.779-0.096-5.25-0.283c-0.288-0.043-0.431-0.2-0.431-0.472v-1.385c0-0.316,0.143-0.475,0.431-0.475h5.309
		c1.187,0,1.985-0.103,2.396-0.313c0.411-0.209,0.616-0.651,0.616-1.321v-0.378c0-0.483-0.119-0.882-0.357-1.195
		c-0.238-0.316-0.674-0.619-1.306-0.913l-4.076-1.701c-1.837-0.775-2.754-2.276-2.754-4.499v-0.664c0-1.665,0.593-2.763,1.78-3.29
		C67.648,22.816,68.998,22.593,70.662,22.593z"/>
	<path fill="#324549" stroke="#324549" stroke-width="1.5" stroke-miterlimit="10" d="M85.416,22.593
		c1.646,0,3.098,0.095,4.361,0.286c0.267,0.042,0.401,0.221,0.401,0.539v1.36c0,0.316-0.142,0.475-0.43,0.475h-4.333
		c-1.686,0-2.756,0.39-3.215,1.17s-0.688,2.437-0.688,4.977c0,2.495,0.229,4.144,0.688,4.939c0.459,0.777,1.53,1.166,3.215,1.166
		h4.333c0.288,0,0.43,0.157,0.43,0.473v1.353c0,0.314-0.135,0.493-0.401,0.535c-1.264,0.188-2.718,0.283-4.361,0.283
		c-1.494,0-2.646-0.126-3.46-0.378c-0.814-0.253-1.469-0.712-1.967-1.386c-0.478-0.67-0.804-1.521-0.974-2.549
		c-0.173-1.026-0.26-2.506-0.26-4.437c0-1.929,0.087-3.411,0.26-4.439c0.17-1.034,0.496-1.887,0.974-2.562
		c0.498-0.697,1.152-1.171,1.967-1.425C82.77,22.721,83.922,22.593,85.416,22.593z"/>
	<path fill="#324549" stroke="#324549" stroke-width="1.5" stroke-miterlimit="10" d="M95.689,22.974
		c0.842-0.253,1.969-0.38,3.388-0.38c1.434,0,2.563,0.127,3.387,0.38c1.683,0.465,2.686,1.825,3.013,4.081
		c0.173,1.028,0.26,2.478,0.26,4.345c0,1.847-0.087,3.306-0.26,4.376c-0.327,2.16-1.331,3.504-3.013,4.028
		c-0.881,0.229-2.011,0.346-3.387,0.346c-1.399,0-2.537-0.116-3.416-0.346c-1.647-0.503-2.649-1.845-3.014-4.028
		c-0.173-1.07-0.259-2.529-0.259-4.376c0-1.866,0.087-3.315,0.259-4.345C93.012,24.799,94.024,23.439,95.689,22.974z M99.077,25.252
		c-1.705,0-2.784,0.39-3.244,1.17c-0.459,0.781-0.688,2.437-0.688,4.977c0,2.495,0.228,4.144,0.688,4.939
		c0.46,0.777,1.539,1.166,3.244,1.166c1.682,0,2.754-0.389,3.212-1.166c0.46-0.796,0.689-2.444,0.689-4.939
		c0-2.54-0.229-4.197-0.689-4.977C101.831,25.642,100.759,25.252,99.077,25.252z"/>
	<path fill="#324549" stroke="#324549" stroke-width="1.5" stroke-miterlimit="10" d="M115.579,22.593
		c2.755,0,4.562,0.582,5.423,1.74c0.861,1.182,1.293,3.53,1.293,7.034c0,3.525-0.421,5.875-1.263,7.05
		c-0.822,1.154-2.593,1.731-5.308,1.731c-1.532,0-2.795-0.064-3.79-0.188v5.791c0,0.313-0.144,0.472-0.431,0.472h-1.894
		c-0.287,0-0.43-0.158-0.43-0.472V23.67c0-0.295,0.152-0.475,0.459-0.538C111.743,22.773,113.724,22.593,115.579,22.593z
		 M115.605,25.252h-3.673v12.001c1.32,0.168,2.525,0.252,3.615,0.252c1.723,0,2.813-0.378,3.273-1.134
		c0.478-0.775,0.719-2.435,0.719-4.972c0-2.54-0.231-4.197-0.69-4.977C118.391,25.642,117.311,25.252,115.605,25.252z"/>
	<path fill="#324549" stroke="#324549" stroke-width="1.5" stroke-miterlimit="10" d="M131.824,22.593
		c2.544,0,4.236,0.559,5.079,1.678c0.861,1.139,1.301,3.363,1.321,6.657v0.911c0,0.337-0.072,0.567-0.216,0.692
		s-0.418,0.189-0.819,0.189h-9.125c0.038,1.932,0.297,3.211,0.775,3.839c0.497,0.629,1.512,0.945,3.042,0.945h4.707
		c0.286,0,0.43,0.156,0.43,0.471v1.385c0,0.295-0.134,0.461-0.4,0.503c-1.264,0.188-2.86,0.284-4.794,0.284
		c-2.681,0-4.438-0.567-5.28-1.7c-0.843-1.175-1.263-3.525-1.263-7.05c0-3.523,0.42-5.883,1.263-7.065
		C127.366,23.175,129.125,22.593,131.824,22.593z M131.824,25.252c-1.512,0-2.518,0.337-3.016,1.012
		c-0.496,0.675-0.756,2.01-0.773,4.001h7.433c-0.019-2.013-0.267-3.358-0.745-4.033C134.263,25.577,133.297,25.252,131.824,25.252z"
		/>
</g>
</svg>
