<?xml version="1.0" encoding="utf-8"?>
<!-- Generator: Adobe Illustrator 16.0.3, SVG Export Plug-In . SVG Version: 6.00 Build 0)  -->
<!DOCTYPE svg PUBLIC "-//W3C//DTD SVG 1.1//EN" "http://www.w3.org/Graphics/SVG/1.1/DTD/svg11.dtd">
<svg version="1.1" id="Layer_1" xmlns="http://www.w3.org/2000/svg" xmlns:xlink="http://www.w3.org/1999/xlink" x="0px" y="0px"
	 width="500px" height="116px" viewBox="0 0 500 116" enable-background="new 0 0 500 116" xml:space="preserve">
<g>
	<path fill-rule="evenodd" clip-rule="evenodd" fill="#3060A3" d="M67.282,41.522c-0.915,0-1.829,0-2.743,0
		c-2.499,0-3.585-0.947-3.944-3.391c-0.698-4.749-2.823-8.774-6.193-12.169c-3.318-3.344-7.319-5.471-11.946-6.143
		c-8.033-1.166-14.834,1.354-20.227,7.444c-2.679,3.025-4.304,6.615-4.995,10.586c-1.673,9.626,3.43,19.587,12.813,23.688
		c1.9,0.83,3.988,1.278,6.028,1.734c1.667,0.371,2.816,1.4,2.854,3.094c0.052,2.341,0.072,4.687-0.001,7.027
		c-0.057,1.831-1.235,3.537-4.341,3.094c-5.21-0.744-10.114-2.365-14.539-5.262C11.071,65.351,5.601,57.113,4.076,46.5
		c-1.471-10.24,1.162-19.479,7.771-27.488c5.303-6.426,12.117-10.414,20.261-12.078c6.158-1.258,12.304-0.92,18.184,1.224
		C61.896,12.39,69.57,20.459,72.909,32.44c0.539,1.931,0.824,3.953,1.017,5.953c0.163,1.683-1.337,3.097-3.043,3.125
		C69.682,41.539,68.482,41.522,67.282,41.522z"/>
	<path fill-rule="evenodd" clip-rule="evenodd" fill="#F5B03C" d="M38.953,47.082c0-1.228-0.035-2.458,0.008-3.686
		c0.06-1.684,1.376-2.943,3.063-2.901c3.131,0.078,6.134,0.874,9.036,1.956c5.339,1.993,9.984,5.07,13.84,9.305
		c4.374,4.801,7.233,10.372,8.529,16.73c1.414,6.938,0.811,13.729-1.893,20.261c-3.788,9.15-10.295,15.653-19.473,19.437
		c-4.316,1.78-8.837,2.66-13.485,2.561c-8.283-0.177-15.726-2.796-22.13-8.141c-6.94-5.792-11.024-13.198-12.417-22.11
		c-0.07-0.45-0.122-0.903-0.173-1.356c-0.225-1.998,1.24-3.637,3.272-3.646c2.2-0.008,4.4-0.003,6.6-0.001
		c1.89,0.001,3.15,1.111,3.457,2.978c1.501,9.145,6.68,15.258,15.464,18.059c10.99,3.503,22.941-2.609,26.901-13.517
		c4.383-12.074-2.5-25.331-14.916-28.697c-0.981-0.266-1.991-0.447-2.997-0.6c-1.484-0.225-2.602-1.37-2.681-2.86
		c-0.033-0.626-0.019-1.256-0.022-1.884c-0.003-0.629-0.001-1.259-0.001-1.887C38.942,47.082,38.948,47.082,38.953,47.082z"/>
</g>
<g>
	<path fill="#3060A3" stroke="#3060A3" stroke-width="3" stroke-miterlimit="10" d="M189.281,51.29c0,1.075-1.79,4.221-5.37,9.43
		c-5.064,7.363-8.368,12.369-9.91,15.019c-3.58,6.082-5.371,10.711-5.371,13.882c0,5.997,0.205,12.167,0.612,18.513h-8.382
		c0.378-6.026,0.567-12.225,0.567-18.6c0-3.493-1.674-8.338-5.021-14.538c-1.892-3.462-5.021-8.469-9.387-15.018
		c-3.347-5.065-5.021-7.959-5.021-8.688h8.95c0,0.756,2.511,5.391,7.531,13.904c5.021,8.513,7.531,14.138,7.531,16.875h0.437
		c0-2.765,2.394-8.295,7.182-16.59s7.182-13.025,7.182-14.189H189.281z"/>
	<path fill="#F5B03C" stroke="#F4B03C" stroke-width="3" stroke-miterlimit="10" d="M290.785,58.307l0.193,0.048
		c2.264-2.36,4.146-4.075,5.652-5.143c1.504-1.066,3.055-1.883,4.656-2.449c1.6-0.565,3.355-0.849,5.264-0.849
		c3.459,0,6.428,0.881,8.9,2.644c2.475,1.763,4.383,4.406,5.725,7.932c1.342,3.524,2.014,7.842,2.014,12.952
		c0,5.271-0.801,9.726-2.402,13.363c-1.6,3.639-3.961,6.387-7.082,8.247c-3.121,1.859-6.814,2.789-11.084,2.789
		c-2.393,0-4.65-0.219-6.768-0.655c-2.119-0.437-4.342-1.204-6.67-2.305l-3.395,2.96l-3.348-0.776V44.336
		c0-3.105-0.023-15.168-0.072-16.396s-0.178-2.271-0.389-3.128c-0.211-0.857-0.502-1.528-0.873-2.014s-0.873-0.873-1.504-1.165
		c-0.631-0.29-1.77-0.581-3.42-0.872v-2.522l11.74-0.485h2.861V58.307z M290.785,79.602c0,2.489,0.113,4.471,0.338,5.942
		c0.227,1.471,0.607,2.691,1.141,3.662c0.533,0.97,1.311,1.859,2.33,2.667c1.018,0.81,2.158,1.367,3.418,1.674
		c1.262,0.308,2.67,0.461,4.221,0.461c3.881,0,6.824-1.584,8.828-4.754c2.006-3.169,3.008-7.923,3.008-14.261
		c0-6.403-0.914-11.214-2.74-14.432s-4.584-4.826-8.27-4.826c-1.844,0-3.414,0.283-4.707,0.849
		c-1.293,0.566-2.578,1.447-3.855,2.645c-1.277,1.195-2.217,2.377-2.814,3.541s-0.896,2.489-0.896,3.977V79.602z"/>
	<g>
		<g>
			<g>
				<g>
					<path fill="#8E8E8E" d="M138.656,75.527c0,14.357-9.993,21.537-29.978,21.537c-7.294,0-13.776-0.835-19.442-2.503l2.037-9.14
						c6.521,2.252,12.709,3.375,18.569,3.375c13.194,0,19.792-3.725,19.792-11.175c0-3.765-1.706-6.985-5.122-9.663
						c-2.29-1.784-6.791-4.171-13.505-7.159c-7.062-3.145-12.01-6.034-14.844-8.675c-3.919-3.646-5.877-8.227-5.877-13.736
						c0-5.743,1.997-10.421,5.995-14.028c4.462-4.037,10.769-6.054,18.918-6.054c9.237,0,15.561,0.601,18.977,1.804l-1.397,9.256
						c-5.899-1.863-12.167-2.795-18.803-2.795c-9.972,0-14.958,3.337-14.958,10.013c0,3.22,1.435,5.918,4.307,8.091
						c1.861,1.358,5.977,3.416,12.339,6.172c7.258,3.142,12.497,6.129,15.717,8.963C136.23,64.079,138.656,69.317,138.656,75.527z"
						/>
				</g>
				<g>
					<path fill="none" stroke="#8E8E8D" stroke-width="3" stroke-miterlimit="10" d="M138.656,75.527
						c0,14.357-9.993,21.537-29.978,21.537c-7.294,0-13.776-0.835-19.442-2.503l2.037-9.14c6.521,2.252,12.709,3.375,18.569,3.375
						c13.194,0,19.792-3.725,19.792-11.175c0-3.765-1.706-6.985-5.122-9.663c-2.29-1.784-6.791-4.171-13.505-7.159
						c-7.062-3.145-12.01-6.034-14.844-8.675c-3.919-3.646-5.877-8.227-5.877-13.736c0-5.743,1.997-10.421,5.995-14.028
						c4.462-4.037,10.769-6.054,18.918-6.054c9.237,0,15.561,0.601,18.977,1.804l-1.397,9.256
						c-5.899-1.863-12.167-2.795-18.803-2.795c-9.972,0-14.958,3.337-14.958,10.013c0,3.22,1.435,5.918,4.307,8.091
						c1.861,1.358,5.977,3.416,12.339,6.172c7.258,3.142,12.497,6.129,15.717,8.963C136.23,64.079,138.656,69.317,138.656,75.527z"
						/>
				</g>
			</g>
			<g>
				<g>
					<path fill="#8E8E8E" d="M259.836,68.978c0-5.174-0.896-8.594-2.691-10.259c-1.795-1.666-4.746-2.499-8.854-2.499
						c-3.459,0-7.033,1.698-10.72,5.094c-0.13,3.945-0.194,7.81-0.194,11.594c0,5.4,0.098,13.453,0.291,24.157h-8.828
						c0.712-9.217,1.067-18.579,1.067-28.087c0-5.174-0.897-8.594-2.692-10.259c-1.795-1.666-4.665-2.499-8.61-2.499
						c-4.042,0-7.826,1.698-11.351,5.094c0,10.251,0.064,22.168,0.193,35.751h-8.828c0.615-10.995,0.922-18.951,0.922-23.866
						c0-7.471-0.728-14.811-2.184-22.022l8.538-1.213l0.873,5.869h0.485c4.204-4.302,8.877-6.452,14.019-6.452
						c7.665,0,12.597,2.15,14.795,6.452h0.534c4.883-4.302,9.701-6.452,14.456-6.452c5.434,0,9.539,1.197,12.32,3.59
						c2.781,2.394,4.172,6.613,4.172,12.661c0,0.614-0.031,1.827-0.096,3.638c-0.066,1.812-0.098,3.024-0.098,3.639
						c0,5.4,0.064,13.453,0.193,24.157h-8.828C259.465,88.592,259.836,79.229,259.836,68.978z"/>
				</g>
				<g>
					<path fill="none" stroke="#8E8E8D" stroke-width="3" stroke-miterlimit="10" d="M259.836,68.978
						c0-5.174-0.896-8.594-2.691-10.259c-1.795-1.666-4.746-2.499-8.854-2.499c-3.459,0-7.033,1.698-10.72,5.094
						c-0.13,3.945-0.194,7.81-0.194,11.594c0,5.4,0.098,13.453,0.291,24.157h-8.828c0.712-9.217,1.067-18.579,1.067-28.087
						c0-5.174-0.897-8.594-2.692-10.259c-1.795-1.666-4.665-2.499-8.61-2.499c-4.042,0-7.826,1.698-11.351,5.094
						c0,10.251,0.064,22.168,0.193,35.751h-8.828c0.615-10.995,0.922-18.951,0.922-23.866c0-7.471-0.728-14.811-2.184-22.022
						l8.538-1.213l0.873,5.869h0.485c4.204-4.302,8.877-6.452,14.019-6.452c7.665,0,12.597,2.15,14.795,6.452h0.534
						c4.883-4.302,9.701-6.452,14.456-6.452c5.434,0,9.539,1.197,12.32,3.59c2.781,2.394,4.172,6.613,4.172,12.661
						c0,0.614-0.031,1.827-0.096,3.638c-0.066,1.812-0.098,3.024-0.098,3.639c0,5.4,0.064,13.453,0.193,24.157h-8.828
						C259.465,88.592,259.836,79.229,259.836,68.978z"/>
				</g>
			</g>
			<g>
				<g>
					<path fill="#8E8E8E" d="M343.416,97.064h-8.779c0.451-6.468,0.678-13.857,0.678-22.169c0-9.346-0.564-17.188-1.697-23.526
						l9.701-1.31c-0.387,6.759-0.58,15.038-0.58,24.836C342.738,82.657,342.963,90.047,343.416,97.064z M345.453,36.429
						c0,1.649-0.533,3.08-1.602,4.293c-1.064,1.213-2.57,1.819-4.51,1.819c-1.65,0-2.934-0.525-3.855-1.577
						c-0.922-1.051-1.383-2.319-1.383-3.808c0-1.617,0.549-3.023,1.648-4.221c1.1-1.196,2.619-1.795,4.559-1.795
						c1.586,0,2.838,0.526,3.76,1.577S345.453,35.006,345.453,36.429z"/>
				</g>
				<g>
					<path fill="none" stroke="#8E8E8D" stroke-width="3" stroke-miterlimit="10" d="M343.416,97.064h-8.779
						c0.451-6.468,0.678-13.857,0.678-22.169c0-9.346-0.564-17.188-1.697-23.526l9.701-1.31c-0.387,6.759-0.58,15.038-0.58,24.836
						C342.738,82.657,342.963,90.047,343.416,97.064z M345.453,36.429c0,1.649-0.533,3.08-1.602,4.293
						c-1.064,1.213-2.57,1.819-4.51,1.819c-1.65,0-2.934-0.525-3.855-1.577c-0.922-1.051-1.383-2.319-1.383-3.808
						c0-1.617,0.549-3.023,1.648-4.221c1.1-1.196,2.619-1.795,4.559-1.795c1.586,0,2.838,0.526,3.76,1.577
						S345.453,35.006,345.453,36.429z"/>
				</g>
			</g>
			<g>
				<g>
					<path fill="#8E8E8E" d="M400.559,72.616c0,8.278-2.377,14.739-7.131,19.379c-4.752,4.641-10.348,6.962-16.783,6.962
						c-6.016,0-11.18-2.055-15.498-6.162c-4.318-4.106-6.477-9.895-6.477-17.366c0-8.343,2.385-14.859,7.154-19.548
						c4.771-4.689,10.373-7.033,16.809-7.033c6.016,0,11.174,2.077,15.475,6.232C398.408,59.236,400.559,65.081,400.559,72.616z
						 M392.168,74.314c0-5.046-1.27-9.532-3.809-13.462c-2.539-3.929-6.152-5.894-10.842-5.894c-4.656,0-8.238,1.859-10.744,5.579
						c-2.506,3.719-3.76,8.035-3.76,12.951c0,5.077,1.27,9.572,3.809,13.485c2.537,3.912,6.168,5.869,10.891,5.869
						c4.656,0,8.229-1.867,10.719-5.603S392.168,79.196,392.168,74.314z"/>
				</g>
				<g>
					<path fill="none" stroke="#8E8E8D" stroke-width="3" stroke-miterlimit="10" d="M400.559,72.616
						c0,8.278-2.377,14.739-7.131,19.379c-4.752,4.641-10.348,6.962-16.783,6.962c-6.016,0-11.18-2.055-15.498-6.162
						c-4.318-4.106-6.477-9.895-6.477-17.366c0-8.343,2.385-14.859,7.154-19.548c4.771-4.689,10.373-7.033,16.809-7.033
						c6.016,0,11.174,2.077,15.475,6.232C398.408,59.236,400.559,65.081,400.559,72.616z M392.168,74.314
						c0-5.046-1.27-9.532-3.809-13.462c-2.539-3.929-6.152-5.894-10.842-5.894c-4.656,0-8.238,1.859-10.744,5.579
						c-2.506,3.719-3.76,8.035-3.76,12.951c0,5.077,1.27,9.572,3.809,13.485c2.537,3.912,6.168,5.869,10.891,5.869
						c4.656,0,8.229-1.867,10.719-5.603S392.168,79.196,392.168,74.314z"/>
				</g>
			</g>
			<g>
				<g>
					<path fill="#8E8E8E" d="M442.568,83.919c0,9.442-6.031,14.164-18.094,14.164c-5.336,0-10.316-0.534-14.941-1.601l1.504-7.131
						c4.203,1.617,8.764,2.425,13.68,2.425c7.049,0,10.574-2.005,10.574-6.015c0-1.939-0.783-3.485-2.354-4.632
						c-1.566-1.148-4.162-2.434-7.785-3.857c-4.592-1.811-7.922-3.557-9.992-5.239c-3.039-2.489-4.559-5.497-4.559-9.021
						c0-3.687,1.391-6.848,4.17-9.484c2.781-2.635,7.018-3.953,12.709-3.953c5.564,0,10.025,0.469,13.391,1.406l-1.506,6.985
						c-3.492-1.39-7.533-2.085-12.127-2.085c-6.207,0-9.313,1.794-9.313,5.384c0,1.812,0.695,3.275,2.086,4.391
						c1.391,1.116,4.107,2.465,8.148,4.05c4.365,1.714,7.6,3.396,9.703,5.046C440.998,77.306,442.568,80.361,442.568,83.919z"/>
				</g>
				<g>
					<path fill="none" stroke="#8E8E8D" stroke-width="3" stroke-miterlimit="10" d="M442.568,83.919
						c0,9.442-6.031,14.164-18.094,14.164c-5.336,0-10.316-0.534-14.941-1.601l1.504-7.131c4.203,1.617,8.764,2.425,13.68,2.425
						c7.049,0,10.574-2.005,10.574-6.015c0-1.939-0.783-3.485-2.354-4.632c-1.566-1.148-4.162-2.434-7.785-3.857
						c-4.592-1.811-7.922-3.557-9.992-5.239c-3.039-2.489-4.559-5.497-4.559-9.021c0-3.687,1.391-6.848,4.17-9.484
						c2.781-2.635,7.018-3.953,12.709-3.953c5.564,0,10.025,0.469,13.391,1.406l-1.506,6.985c-3.492-1.39-7.533-2.085-12.127-2.085
						c-6.207,0-9.313,1.794-9.313,5.384c0,1.812,0.695,3.275,2.086,4.391c1.391,1.116,4.107,2.465,8.148,4.05
						c4.365,1.714,7.6,3.396,9.703,5.046C440.998,77.306,442.568,80.361,442.568,83.919z"/>
				</g>
			</g>
			<g>
				<g>
					<path fill="#8E8E8E" d="M493.162,68.59c0,1.358-0.064,3.233-0.193,5.627l-33.326,0.582c0.324,4.722,2.15,8.675,5.48,11.859
						c3.332,3.187,7.746,4.779,13.244,4.779c4.914,0,9.523-0.599,13.826-1.795l-0.824,6.84c-3.172,1.261-7.746,1.892-13.73,1.892
						c-8.406,0-14.818-2.296-19.232-6.889c-4.416-4.591-6.621-10.186-6.621-16.783c0-7.051,2.012-13.122,6.039-18.215
						c4.025-5.094,9.434-7.64,16.225-7.64c6.242,0,10.988,1.842,14.238,5.528C491.539,58.063,493.162,62.801,493.162,68.59z
						 M485.061,68.688c0-9.088-3.799-13.632-11.398-13.632c-7.762,0-12.338,4.722-13.729,14.165L485.061,68.688z"/>
				</g>
				<g>
					<path fill="none" stroke="#8E8E8D" stroke-width="3" stroke-miterlimit="10" d="M493.162,68.59
						c0,1.358-0.064,3.233-0.193,5.627l-33.326,0.582c0.324,4.722,2.15,8.675,5.48,11.859c3.332,3.187,7.746,4.779,13.244,4.779
						c4.914,0,9.523-0.599,13.826-1.795l-0.824,6.84c-3.172,1.261-7.746,1.892-13.73,1.892c-8.406,0-14.818-2.296-19.232-6.889
						c-4.416-4.591-6.621-10.186-6.621-16.783c0-7.051,2.012-13.122,6.039-18.215c4.025-5.094,9.434-7.64,16.225-7.64
						c6.242,0,10.988,1.842,14.238,5.528C491.539,58.063,493.162,62.801,493.162,68.59z M485.061,68.688
						c0-9.088-3.799-13.632-11.398-13.632c-7.762,0-12.338,4.722-13.729,14.165L485.061,68.688z"/>
				</g>
			</g>
		</g>
	</g>
</g>
</svg>
